<mxfile host="app.diagrams.net" modified="2024-02-13T14:17:32.367Z" agent="Mozilla/5.0 (Windows NT 10.0; Win64; x64) AppleWebKit/537.36 (KHTML, like Gecko) Chrome/121.0.0.0 Safari/537.36" etag="er6TjG3Ef8mqfeueFGa7" version="21.6.2" type="device">
  <diagram name="Stránka-1" id="gMQlxFLUS9q18lHNd00O">
    <mxGraphModel dx="5297" dy="3309" grid="1" gridSize="10" guides="1" tooltips="1" connect="1" arrows="1" fold="1" page="0" pageScale="1" pageWidth="827" pageHeight="1169" math="0" shadow="0">
      <root>
        <mxCell id="0" />
        <mxCell id="1" parent="0" />
        <mxCell id="EA2Wmdj7KJ3M2PFb7_P4-71" value="" style="shape=process;whiteSpace=wrap;html=1;backgroundOutline=1;rotation=90;labelPosition=center;verticalLabelPosition=middle;align=center;verticalAlign=middle;" vertex="1" parent="1">
          <mxGeometry x="-602" y="550.6665666056946" width="300" height="398.67109634551497" as="geometry" />
        </mxCell>
        <mxCell id="EA2Wmdj7KJ3M2PFb7_P4-70" value="koš na chybové kusy" style="text;html=1;strokeColor=none;fillColor=none;align=center;verticalAlign=middle;whiteSpace=wrap;rounded=0;fontSize=20;" vertex="1" parent="1">
          <mxGeometry x="-637" y="869.3401214229704" width="370" height="29.900332225913623" as="geometry" />
        </mxCell>
        <mxCell id="EA2Wmdj7KJ3M2PFb7_P4-13" value="" style="rounded=0;whiteSpace=wrap;html=1;" vertex="1" parent="1">
          <mxGeometry x="-610" y="-190" width="2120" height="600" as="geometry" />
        </mxCell>
        <mxCell id="EA2Wmdj7KJ3M2PFb7_P4-55" value="" style="group" vertex="1" connectable="0" parent="1">
          <mxGeometry x="-220" y="-150" width="400" height="300" as="geometry" />
        </mxCell>
        <mxCell id="EA2Wmdj7KJ3M2PFb7_P4-51" value="" style="shape=process;whiteSpace=wrap;html=1;backgroundOutline=1;rotation=90;labelPosition=center;verticalLabelPosition=middle;align=center;verticalAlign=middle;" vertex="1" parent="EA2Wmdj7KJ3M2PFb7_P4-55">
          <mxGeometry x="50" y="-50" width="300" height="400" as="geometry" />
        </mxCell>
        <mxCell id="EA2Wmdj7KJ3M2PFb7_P4-52" value="koš/krabička na dobré kusy" style="text;html=1;strokeColor=none;fillColor=none;align=center;verticalAlign=middle;whiteSpace=wrap;rounded=0;fontSize=20;" vertex="1" parent="EA2Wmdj7KJ3M2PFb7_P4-55">
          <mxGeometry x="15" y="270" width="370" height="30" as="geometry" />
        </mxCell>
        <mxCell id="EA2Wmdj7KJ3M2PFb7_P4-11" value="" style="rounded=0;whiteSpace=wrap;html=1;" vertex="1" parent="1">
          <mxGeometry x="1160" y="420" width="320" height="1000" as="geometry" />
        </mxCell>
        <mxCell id="EA2Wmdj7KJ3M2PFb7_P4-4" value="primar" style="rounded=0;whiteSpace=wrap;html=1;rotation=90;" vertex="1" parent="1">
          <mxGeometry x="1372.5" y="1160" width="105" height="70" as="geometry" />
        </mxCell>
        <mxCell id="EA2Wmdj7KJ3M2PFb7_P4-5" value="sekundar" style="rounded=0;whiteSpace=wrap;html=1;" vertex="1" parent="1">
          <mxGeometry x="1180" y="890" width="140" height="105" as="geometry" />
        </mxCell>
        <mxCell id="EA2Wmdj7KJ3M2PFb7_P4-7" value="sekundar velký" style="rounded=0;whiteSpace=wrap;html=1;rotation=90;" vertex="1" parent="1">
          <mxGeometry x="1285" y="670" width="210" height="140" as="geometry" />
        </mxCell>
        <mxCell id="EA2Wmdj7KJ3M2PFb7_P4-12" value="Pás z baličky" style="text;html=1;strokeColor=none;fillColor=none;align=center;verticalAlign=middle;whiteSpace=wrap;rounded=0;fontSize=22;" vertex="1" parent="1">
          <mxGeometry x="1255" y="535" width="130" height="95" as="geometry" />
        </mxCell>
        <mxCell id="EA2Wmdj7KJ3M2PFb7_P4-14" value="sekundar velký" style="rounded=0;whiteSpace=wrap;html=1;rotation=90;" vertex="1" parent="1">
          <mxGeometry x="1145" y="670" width="210" height="140" as="geometry" />
        </mxCell>
        <mxCell id="EA2Wmdj7KJ3M2PFb7_P4-15" value="sekundar" style="rounded=0;whiteSpace=wrap;html=1;" vertex="1" parent="1">
          <mxGeometry x="1180" y="995" width="140" height="105" as="geometry" />
        </mxCell>
        <mxCell id="EA2Wmdj7KJ3M2PFb7_P4-16" value="sekundar" style="rounded=0;whiteSpace=wrap;html=1;" vertex="1" parent="1">
          <mxGeometry x="1320" y="890" width="140" height="105" as="geometry" />
        </mxCell>
        <mxCell id="EA2Wmdj7KJ3M2PFb7_P4-17" value="sekundar" style="rounded=0;whiteSpace=wrap;html=1;" vertex="1" parent="1">
          <mxGeometry x="1320" y="995" width="140" height="105" as="geometry" />
        </mxCell>
        <mxCell id="EA2Wmdj7KJ3M2PFb7_P4-18" value="primar" style="rounded=0;whiteSpace=wrap;html=1;rotation=90;" vertex="1" parent="1">
          <mxGeometry x="1302.5" y="1160" width="105" height="70" as="geometry" />
        </mxCell>
        <mxCell id="EA2Wmdj7KJ3M2PFb7_P4-19" value="primar" style="rounded=0;whiteSpace=wrap;html=1;rotation=90;" vertex="1" parent="1">
          <mxGeometry x="1372.5" y="1260" width="105" height="70" as="geometry" />
        </mxCell>
        <mxCell id="EA2Wmdj7KJ3M2PFb7_P4-20" value="primar" style="rounded=0;whiteSpace=wrap;html=1;rotation=90;" vertex="1" parent="1">
          <mxGeometry x="1302.5" y="1260" width="105" height="70" as="geometry" />
        </mxCell>
        <mxCell id="EA2Wmdj7KJ3M2PFb7_P4-21" value="primar" style="rounded=0;whiteSpace=wrap;html=1;rotation=90;" vertex="1" parent="1">
          <mxGeometry x="1232.5" y="1160" width="105" height="70" as="geometry" />
        </mxCell>
        <mxCell id="EA2Wmdj7KJ3M2PFb7_P4-22" value="primar" style="rounded=0;whiteSpace=wrap;html=1;rotation=90;" vertex="1" parent="1">
          <mxGeometry x="1162.5" y="1160" width="105" height="70" as="geometry" />
        </mxCell>
        <mxCell id="EA2Wmdj7KJ3M2PFb7_P4-23" value="primar" style="rounded=0;whiteSpace=wrap;html=1;rotation=90;" vertex="1" parent="1">
          <mxGeometry x="1232.5" y="1260" width="105" height="70" as="geometry" />
        </mxCell>
        <mxCell id="EA2Wmdj7KJ3M2PFb7_P4-24" value="primar" style="rounded=0;whiteSpace=wrap;html=1;rotation=90;" vertex="1" parent="1">
          <mxGeometry x="1162.5" y="1260" width="105" height="70" as="geometry" />
        </mxCell>
        <mxCell id="EA2Wmdj7KJ3M2PFb7_P4-28" value="ZEĎ" style="text;html=1;strokeColor=none;fillColor=none;align=center;verticalAlign=middle;whiteSpace=wrap;rounded=0;fontSize=34;" vertex="1" parent="1">
          <mxGeometry x="270" y="-310" width="200" height="130" as="geometry" />
        </mxCell>
        <mxCell id="EA2Wmdj7KJ3M2PFb7_P4-30" value="" style="group" vertex="1" connectable="0" parent="1">
          <mxGeometry x="840" y="-400" width="849.99" height="850" as="geometry" />
        </mxCell>
        <mxCell id="EA2Wmdj7KJ3M2PFb7_P4-8" value="" style="ellipse;whiteSpace=wrap;html=1;aspect=fixed;" vertex="1" parent="EA2Wmdj7KJ3M2PFb7_P4-30">
          <mxGeometry width="849.99" height="849.99" as="geometry" />
        </mxCell>
        <mxCell id="EA2Wmdj7KJ3M2PFb7_P4-2" value="ROBOT" style="rounded=0;whiteSpace=wrap;html=1;" vertex="1" parent="EA2Wmdj7KJ3M2PFb7_P4-30">
          <mxGeometry x="343.99" y="329.993882280968" width="170" height="190.00223532041554" as="geometry" />
        </mxCell>
        <mxCell id="EA2Wmdj7KJ3M2PFb7_P4-3" value="kabely" style="rounded=0;whiteSpace=wrap;html=1;" vertex="1" parent="EA2Wmdj7KJ3M2PFb7_P4-30">
          <mxGeometry x="343.99" y="219.99258814809588" width="170" height="110.00129413287216" as="geometry" />
        </mxCell>
        <mxCell id="EA2Wmdj7KJ3M2PFb7_P4-10" value="dosah robota" style="text;html=1;strokeColor=none;fillColor=none;align=center;verticalAlign=middle;whiteSpace=wrap;rounded=0;" vertex="1" parent="EA2Wmdj7KJ3M2PFb7_P4-30">
          <mxGeometry x="64.99000000000001" y="639.9975293826986" width="60" height="30.00035294532877" as="geometry" />
        </mxCell>
        <mxCell id="EA2Wmdj7KJ3M2PFb7_P4-31" value="záběr kamery 1" style="whiteSpace=wrap;html=1;aspect=fixed;fontSize=34;" vertex="1" parent="EA2Wmdj7KJ3M2PFb7_P4-30">
          <mxGeometry x="330" y="539.9963528982694" width="300" height="300" as="geometry" />
        </mxCell>
        <mxCell id="EA2Wmdj7KJ3M2PFb7_P4-81" value="" style="shape=process;whiteSpace=wrap;html=1;backgroundOutline=1;rotation=90;labelPosition=center;verticalLabelPosition=middle;align=center;verticalAlign=middle;" vertex="1" parent="EA2Wmdj7KJ3M2PFb7_P4-30">
          <mxGeometry x="-592" y="199.99656660569462" width="300" height="398.67109634551497" as="geometry" />
        </mxCell>
        <mxCell id="EA2Wmdj7KJ3M2PFb7_P4-82" value="koš na chybové kusy" style="text;html=1;strokeColor=none;fillColor=none;align=center;verticalAlign=middle;whiteSpace=wrap;rounded=0;fontSize=20;" vertex="1" parent="EA2Wmdj7KJ3M2PFb7_P4-30">
          <mxGeometry x="-627" y="518.6701214229704" width="370" height="29.900332225913623" as="geometry" />
        </mxCell>
        <mxCell id="EA2Wmdj7KJ3M2PFb7_P4-83" value="" style="rounded=0;whiteSpace=wrap;html=1;container=0;" vertex="1" parent="EA2Wmdj7KJ3M2PFb7_P4-30">
          <mxGeometry x="-670" y="309.33000000000004" width="880" height="180" as="geometry" />
        </mxCell>
        <mxCell id="EA2Wmdj7KJ3M2PFb7_P4-84" value="místo upuštění balíků" style="rounded=0;whiteSpace=wrap;html=1;fontSize=20;container=0;" vertex="1" parent="EA2Wmdj7KJ3M2PFb7_P4-30">
          <mxGeometry x="-30" y="309.33000000000004" width="240" height="180" as="geometry" />
        </mxCell>
        <mxCell id="EA2Wmdj7KJ3M2PFb7_P4-85" value="tmavá komora" style="rounded=0;whiteSpace=wrap;html=1;fontSize=20;container=0;" vertex="1" parent="EA2Wmdj7KJ3M2PFb7_P4-30">
          <mxGeometry x="-270" y="299.33000000000004" width="240" height="200" as="geometry" />
        </mxCell>
        <mxCell id="EA2Wmdj7KJ3M2PFb7_P4-86" value="" style="shape=cylinder3;whiteSpace=wrap;html=1;boundedLbl=1;backgroundOutline=1;size=15;container=0;" vertex="1" parent="EA2Wmdj7KJ3M2PFb7_P4-30">
          <mxGeometry x="-329.5" y="450.33000000000004" width="15" height="80" as="geometry" />
        </mxCell>
        <mxCell id="EA2Wmdj7KJ3M2PFb7_P4-87" value="" style="shape=cylinder3;whiteSpace=wrap;html=1;boundedLbl=1;backgroundOutline=1;size=15;container=0;" vertex="1" parent="EA2Wmdj7KJ3M2PFb7_P4-30">
          <mxGeometry x="-329.5" y="250.33000000000004" width="15" height="80" as="geometry" />
        </mxCell>
        <mxCell id="EA2Wmdj7KJ3M2PFb7_P4-88" value="zarážka&lt;br style=&quot;font-size: 20px;&quot;&gt;a&lt;br style=&quot;font-size: 20px;&quot;&gt;výhybka" style="rounded=1;whiteSpace=wrap;html=1;fontSize=20;container=0;" vertex="1" parent="EA2Wmdj7KJ3M2PFb7_P4-30">
          <mxGeometry x="-387" y="314.33000000000004" width="130" height="170" as="geometry" />
        </mxCell>
        <mxCell id="EA2Wmdj7KJ3M2PFb7_P4-89" value="kamera 2 nahoře se světlem&lt;br style=&quot;font-size: 17px;&quot;&gt;kamera 3 pod skluzem" style="text;html=1;strokeColor=none;fillColor=none;align=center;verticalAlign=middle;whiteSpace=wrap;rounded=0;fontSize=17;container=0;" vertex="1" parent="EA2Wmdj7KJ3M2PFb7_P4-30">
          <mxGeometry x="-285" y="430.33000000000004" width="270" height="90" as="geometry" />
        </mxCell>
        <mxCell id="EA2Wmdj7KJ3M2PFb7_P4-27" value="" style="endArrow=none;html=1;rounded=0;strokeWidth=4;" edge="1" parent="1">
          <mxGeometry width="50" height="50" relative="1" as="geometry">
            <mxPoint x="-800" y="-201" as="sourcePoint" />
            <mxPoint x="1650" y="-201" as="targetPoint" />
          </mxGeometry>
        </mxCell>
        <mxCell id="EA2Wmdj7KJ3M2PFb7_P4-44" value="160 270 330" style="text;html=1;align=center;verticalAlign=middle;resizable=0;points=[];autosize=1;strokeColor=none;fillColor=none;" vertex="1" parent="1">
          <mxGeometry x="225" y="-625" width="90" height="30" as="geometry" />
        </mxCell>
        <mxCell id="EA2Wmdj7KJ3M2PFb7_P4-47" value="" style="endArrow=none;html=1;rounded=0;" edge="1" parent="1">
          <mxGeometry width="50" height="50" relative="1" as="geometry">
            <mxPoint x="590" y="-1060" as="sourcePoint" />
            <mxPoint x="320" y="-970" as="targetPoint" />
            <Array as="points">
              <mxPoint x="590" y="-840" />
              <mxPoint x="320" y="-840" />
            </Array>
          </mxGeometry>
        </mxCell>
        <mxCell id="EA2Wmdj7KJ3M2PFb7_P4-49" value="" style="rounded=0;whiteSpace=wrap;html=1;rotation=341;" vertex="1" parent="1">
          <mxGeometry x="-20" y="-980" width="740" height="10" as="geometry" />
        </mxCell>
        <mxCell id="EA2Wmdj7KJ3M2PFb7_P4-50" value="stůl?" style="text;html=1;align=center;verticalAlign=middle;resizable=0;points=[];autosize=1;strokeColor=none;fillColor=none;fontSize=38;" vertex="1" parent="1">
          <mxGeometry x="-610" y="350" width="100" height="60" as="geometry" />
        </mxCell>
        <mxCell id="EA2Wmdj7KJ3M2PFb7_P4-62" value="" style="rounded=0;whiteSpace=wrap;html=1;container=0;" vertex="1" parent="1">
          <mxGeometry x="-680" y="660" width="880" height="180" as="geometry" />
        </mxCell>
        <mxCell id="EA2Wmdj7KJ3M2PFb7_P4-63" value="místo upuštění balíků" style="rounded=0;whiteSpace=wrap;html=1;fontSize=20;container=0;" vertex="1" parent="1">
          <mxGeometry x="-40" y="660" width="240" height="180" as="geometry" />
        </mxCell>
        <mxCell id="EA2Wmdj7KJ3M2PFb7_P4-64" value="tmavá komora" style="rounded=0;whiteSpace=wrap;html=1;fontSize=20;container=0;" vertex="1" parent="1">
          <mxGeometry x="-280" y="650" width="240" height="200" as="geometry" />
        </mxCell>
        <mxCell id="EA2Wmdj7KJ3M2PFb7_P4-65" value="" style="shape=cylinder3;whiteSpace=wrap;html=1;boundedLbl=1;backgroundOutline=1;size=15;container=0;" vertex="1" parent="1">
          <mxGeometry x="-339.5" y="801" width="15" height="80" as="geometry" />
        </mxCell>
        <mxCell id="EA2Wmdj7KJ3M2PFb7_P4-66" value="" style="shape=cylinder3;whiteSpace=wrap;html=1;boundedLbl=1;backgroundOutline=1;size=15;container=0;" vertex="1" parent="1">
          <mxGeometry x="-339.5" y="601" width="15" height="80" as="geometry" />
        </mxCell>
        <mxCell id="EA2Wmdj7KJ3M2PFb7_P4-67" value="zarážka&lt;br style=&quot;font-size: 20px;&quot;&gt;a&lt;br style=&quot;font-size: 20px;&quot;&gt;výhybka" style="rounded=1;whiteSpace=wrap;html=1;fontSize=20;container=0;" vertex="1" parent="1">
          <mxGeometry x="-397" y="665" width="130" height="170" as="geometry" />
        </mxCell>
        <mxCell id="EA2Wmdj7KJ3M2PFb7_P4-68" value="kamera 2 nahoře se světlem&lt;br style=&quot;font-size: 17px;&quot;&gt;kamera 3 pod skluzem" style="text;html=1;strokeColor=none;fillColor=none;align=center;verticalAlign=middle;whiteSpace=wrap;rounded=0;fontSize=17;container=0;" vertex="1" parent="1">
          <mxGeometry x="-295" y="781" width="270" height="90" as="geometry" />
        </mxCell>
        <mxCell id="EA2Wmdj7KJ3M2PFb7_P4-90" value="" style="shape=link;html=1;rounded=0;exitX=1;exitY=1;exitDx=0;exitDy=0;entryX=0;entryY=1;entryDx=0;entryDy=0;" edge="1" parent="1">
          <mxGeometry width="100" relative="1" as="geometry">
            <mxPoint x="850" y="1010" as="sourcePoint" />
            <mxPoint x="-30" y="1010" as="targetPoint" />
          </mxGeometry>
        </mxCell>
        <mxCell id="EA2Wmdj7KJ3M2PFb7_P4-93" value="" style="endArrow=none;html=1;rounded=0;" edge="1" parent="1">
          <mxGeometry width="50" height="50" relative="1" as="geometry">
            <mxPoint x="830" y="1520" as="sourcePoint" />
            <mxPoint x="830" y="1100" as="targetPoint" />
          </mxGeometry>
        </mxCell>
        <mxCell id="EA2Wmdj7KJ3M2PFb7_P4-97" value="" style="endArrow=none;html=1;rounded=0;" edge="1" parent="1">
          <mxGeometry width="50" height="50" relative="1" as="geometry">
            <mxPoint x="830" y="1100" as="sourcePoint" />
            <mxPoint x="830" y="1100" as="targetPoint" />
            <Array as="points">
              <mxPoint y="1400" />
              <mxPoint x="830" y="1400" />
            </Array>
          </mxGeometry>
        </mxCell>
        <mxCell id="EA2Wmdj7KJ3M2PFb7_P4-98" value="" style="endArrow=none;html=1;rounded=0;" edge="1" parent="1">
          <mxGeometry width="50" height="50" relative="1" as="geometry">
            <mxPoint y="1520" as="sourcePoint" />
            <mxPoint y="1400" as="targetPoint" />
          </mxGeometry>
        </mxCell>
        <mxCell id="EA2Wmdj7KJ3M2PFb7_P4-99" value="" style="whiteSpace=wrap;html=1;aspect=fixed;" vertex="1" parent="1">
          <mxGeometry x="720" y="1270" width="80" height="80" as="geometry" />
        </mxCell>
        <mxCell id="EA2Wmdj7KJ3M2PFb7_P4-100" value="" style="rounded=0;whiteSpace=wrap;html=1;" vertex="1" parent="1">
          <mxGeometry x="850" y="1100" width="40" height="420" as="geometry" />
        </mxCell>
      </root>
    </mxGraphModel>
  </diagram>
</mxfile>
